<?xml version="1.0" encoding="UTF-8"?>
<svg id="b" data-name="Calque 2" xmlns="http://www.w3.org/2000/svg" viewBox="0 0 340 340">
  <g id="c" data-name="Calque 1">
    <g>
      <path d="M99.47,0h141.06c54.94,0,99.47,44.53,99.47,99.47v141.06c0,54.94-44.53,99.47-99.47,99.47H65c-35.9,0-65-29.1-65-65V99.47C0,44.53,44.53,0,99.47,0Z" style="fill: #eff5e5;"/>
      <path d="M279.74,67.61v22.61c0,108.83-60.73,158.26-135.65,158.26h-21.5c2.39-34.05,12.99-54.66,40.67-79.14,13.61-12.04,12.46-18.99,5.75-15-46.16,27.46-69.09,64.59-70.11,123.87l-.04,4.18h-22.61c0-15.4,1.31-29.39,3.91-42.19-2.61-14.63-3.91-34.48-3.91-59.55,0-62.43,50.61-113.04,113.04-113.04,22.61,0,45.22,11.3,90.43,0Z" style="fill: #98c791;"/>
    </g>
  </g>
</svg>