<?xml version="1.0" encoding="UTF-8"?>
<svg id="b" data-name="Calque 2" xmlns="http://www.w3.org/2000/svg" viewBox="0 0 340 340">
  <g id="c" data-name="Calque 1">
    <g>
      <path d="M99.47,0h141.06c54.94,0,99.47,44.53,99.47,99.47v141.06c0,54.94-44.53,99.47-99.47,99.47H65c-35.9,0-65-29.1-65-65V99.47C0,44.53,44.53,0,99.47,0Z" style="fill: #fbdeec;"/>
      <path d="M244.78,161.8c17.66,17.66,17.66,46.29,0,63.95l-63.95,63.95c-4.41,4.41-11.57,4.41-15.99,0l-63.95-63.95c-17.66-17.66-17.66-46.29,0-63.95,17.66-17.66,46.29-17.66,63.95,0l7.99,7.99,8-7.99c17.66-17.66,46.29-17.66,63.95,0ZM172.84,48.99c24.97,0,45.22,20.24,45.22,45.22s-20.24,45.22-45.22,45.22-45.22-20.24-45.22-45.22,20.24-45.22,45.22-45.22Z" style="fill: #df807a;"/>
    </g>
  </g>
</svg>