<?xml version="1.0" encoding="UTF-8"?>
<svg id="b" data-name="Calque 2" xmlns="http://www.w3.org/2000/svg" viewBox="0 0 340 340">
  <g id="c" data-name="Calque 1">
    <g>
      <path d="M99.47,0h141.06c54.94,0,99.47,44.53,99.47,99.47v141.06c0,54.94-44.53,99.47-99.47,99.47H65c-35.9,0-65-29.1-65-65V99.47C0,44.53,44.53,0,99.47,0Z" style="fill: #dff4f7;"/>
      <path d="M68.26,68.26h203.48c6.24,0,11.3,5.06,11.3,11.3v180.87c0,6.24-5.06,11.3-11.3,11.3H68.26c-6.24,0-11.3-5.06-11.3-11.3V79.57c0-6.24,5.06-11.3,11.3-11.3ZM220.47,209.97l39.97-39.97-39.97-39.97-15.99,15.99,23.98,23.98-23.98,23.98,15.99,15.99ZM111.54,170l23.98-23.98-15.99-15.99-39.97,39.97,39.97,39.97,15.99-15.99-23.98-23.98ZM161.46,226.52l41.14-113.04h-24.06l-41.14,113.04h24.06Z" style="fill: #7c99cd;"/>
    </g>
  </g>
</svg>