<?xml version="1.0" encoding="UTF-8"?>
<svg id="b" data-name="Calque 2" xmlns="http://www.w3.org/2000/svg" viewBox="0 0 340 340">
  <g id="c" data-name="Calque 1">
    <g>
      <rect width="340" height="340" style="fill: #e8e8e8;"/>
      <path d="M210.07,183.35v13.46h13.46v8.98h-13.46v13.46h-8.98v-13.46h-13.46v-8.98h13.46v-13.46h8.98ZM210.11,129.49c2.46,0,4.45,2,4.45,4.46v41.95c-2.81-.99-5.83-1.53-8.98-1.53v-35.9h-71.8v62.83s41.7-41.7,41.7-41.7c1.62-1.62,4.16-1.75,5.92-.38l.42.38,15.91,15.94c-11.04,3.36-19.08,13.62-19.08,25.77,0,3.15.54,6.17,1.53,8.98h-50.94c-2.46,0-4.45-2-4.45-4.46v-71.86c0-2.46,2.04-4.46,4.45-4.46h80.85ZM151.73,147.44c4.96,0,8.98,4.02,8.98,8.98s-4.02,8.98-8.98,8.98-8.98-4.02-8.98-8.98,4.02-8.98,8.98-8.98Z" style="fill: #969696;"/>
    </g>
  </g>
</svg>