<?xml version="1.0" encoding="UTF-8"?>
<svg id="b" data-name="Calque 2" xmlns="http://www.w3.org/2000/svg" viewBox="0 0 340 340">
  <g id="c" data-name="Calque 1">
    <g>
      <path d="M99.47,0h141.06c54.9,0,99.47,44.57,99.47,99.47v141.06c0,54.9-44.57,99.47-99.47,99.47H65c-35.87,0-65-29.13-65-65V99.47C0,44.57,44.57,0,99.47,0Z" style="fill: #f4f5f7;"/>
      <g>
        <path d="M100.42,34.58h0c-35.9,0-65,29.1-65,65h0c0,21.92,10.86,41.28,27.47,53.06,9.16-10.4,22.57-16.98,37.53-16.98,20.08,0,37.39,11.84,45.34,28.92h1.66c9.94,0,18-8.06,18-18v-47c0-35.9-29.1-65-65-65ZM100.42,124.58c-13.81,0-25-11.19-25-25s11.19-25,25-25,25,11.19,25,25-11.19,25-25,25Z" style="fill: #e48772;"/>
        <path d="M240.42,34.58h0c-35.9,0-65,29.1-65,65h0c0,21.92,10.86,41.28,27.47,53.06,9.16-10.4,22.57-16.98,37.53-16.98s28.36,6.57,37.53,16.98c16.62-11.77,27.47-31.14,27.47-53.06h0c0-35.9-29.1-65-65-65ZM240.42,124.58c-13.81,0-25-11.19-25-25s11.19-25,25-25,25,11.19,25,25-11.19,25-25,25Z" style="fill: #887696;"/>
        <path d="M118.92,239.58c0,10.2-8.3,18.5-18.5,18.5s-18.5-8.3-18.5-18.5,8.3-18.5,18.5-18.5,18.5,8.3,18.5,18.5ZM165.42,192.58v82c0,16.57-13.43,30-30,30h-70c-16.57,0-30-13.43-30-30v-70c0-16.57,13.43-30,30-30h82c9.94,0,18,8.06,18,18ZM131.92,239.58c0-17.37-14.13-31.5-31.5-31.5s-31.5,14.13-31.5,31.5,14.13,31.5,31.5,31.5,31.5-14.13,31.5-31.5ZM153.42,190.58c0-2.21-1.79-4-4-4h-10c-2.21,0-4,1.79-4,4v10c0,2.21,1.79,4,4,4h10c2.21,0,4-1.79,4-4v-10Z" style="fill: #72becc;"/>
        <path d="M240.42,174.58h-47c-9.94,0-18,8.06-18,18v47c0,21.92,10.86,41.28,27.47,53.06,9.16-10.4,22.57-16.98,37.53-16.98s28.36,6.57,37.53,16.98c16.62-11.77,27.47-31.14,27.47-53.06h0c0-35.9-29.1-65-65-65ZM240.42,264.58c-13.81,0-25-11.19-25-25s11.19-25,25-25,25,11.19,25,25-11.19,25-25,25Z" style="fill: #e4b770;"/>
      </g>
    </g>
  </g>
</svg>